<?xml version="1.0" encoding="utf-8"?>
<!-- Generator: Adobe Illustrator 21.1.0, SVG Export Plug-In . SVG Version: 6.00 Build 0)  -->
<svg version="1.1"
	 id="Layer_1" xmlns:cc="http://creativecommons.org/ns#" xmlns:dc="http://purl.org/dc/elements/1.1/" xmlns:inkscape="http://www.inkscape.org/namespaces/inkscape" xmlns:rdf="http://www.w3.org/1999/02/22-rdf-syntax-ns#" xmlns:sodipodi="http://sodipodi.sourceforge.net/DTD/sodipodi-0.dtd" xmlns:svg="http://www.w3.org/2000/svg"
	 xmlns="http://www.w3.org/2000/svg" xmlns:xlink="http://www.w3.org/1999/xlink" x="0px" y="0px" viewBox="0 0 100 105.2"
	 style="enable-background:new 0 0 100 105.2;" xml:space="preserve">
<style type="text/css">
	.st0{fill:#FFFFFF;}
</style>
<g transform="translate(0,-952.36218)">
	<path class="st0" d="M50,960c-24.8,0-45,20.2-45,45s20.2,45,45,45s45-20.2,45-45C95,980.1,74.8,960,50,960z M50,966
		c21.6,0,39,17.4,39,39c0,21.6-17.4,39-39,39s-39-17.4-39-39C11,983.4,28.4,966,50,966z M39.3,982.9c-1.3,0-2.5,0.4-3.6,1
		c-2.2,1.3-3.6,3.7-3.7,6.5v29c0.1,2.8,1.5,5.2,3.7,6.5s5,1.4,7.5,0.1c8.4-4.8,16.7-9.7,25.1-14.5c2.2-1.3,3.8-3.7,3.8-6.5
		s-1.6-5.2-3.8-6.5c-8.4-4.7-16.6-9.9-25.1-14.5C41.9,983.2,40.5,982.9,39.3,982.9L39.3,982.9z M39.5,988.9c0.2,0,0.5,0.1,0.8,0.2
		l24.9,14.4c0.5,0.3,0.8,0.7,0.8,1.3c0,0.6-0.3,1.1-0.8,1.3l-24.9,14.4c-0.7,0.4-1.1,0.3-1.5,0c-0.4-0.2-0.7-0.6-0.8-1.4v-28.8
		c0-0.7,0.3-1.1,0.8-1.4C39.1,988.9,39.3,988.9,39.5,988.9L39.5,988.9z"/>
</g>
</svg>
